<?xml version="1.0" encoding="UTF-8" standalone="no"?><!DOCTYPE svg PUBLIC "-//W3C//DTD SVG 1.1//EN" "http://www.w3.org/Graphics/SVG/1.1/DTD/svg11.dtd"><svg width="100%" height="100%" viewBox="0 0 49 48" version="1.1" xmlns="http://www.w3.org/2000/svg" xmlns:xlink="http://www.w3.org/1999/xlink" xml:space="preserve" xmlns:serif="http://www.serif.com/" style="fill-rule:evenodd;clip-rule:evenodd;stroke-linejoin:round;stroke-miterlimit:2;"><path d="M8.595,28.791l0,3.222l-8.537,0l8.537,-3.222Zm28.326,-0.462l-0,3.516l9.115,0l-9.115,-3.516Z" style="fill:#cfa72a;fill-rule:nonzero;"/><path d="M9.606,0.925l19.069,-0l9.076,9.178l0,26.273c0,0.557 -0.459,1.017 -1.018,1.017l-27.127,0c-0.557,0 -1.017,-0.46 -1.017,-1.017l-0,-34.434c-0,-0.557 0.46,-1.017 1.017,-1.017Z" style="fill:#007fdf;fill-rule:nonzero;"/><path d="M28.675,0.925l0,8.16c0,0.558 0.46,1.018 1.017,1.018l8.059,-0l-9.076,-9.178Z" style="fill:#dcf9f3;fill-rule:nonzero;"/><path d="M0,31.69l15.156,0l2.588,3.917l11.829,-0l2.218,-3.917l14.417,0l0,15.31l-46.208,-0l0,-15.31Z" style="fill:#ffd159;fill-rule:nonzero;"/><path d="M22.045,1.015l0.749,-0l-0,0.749l-0.749,0l-0,-0.749Zm-0,1.499l0.749,0l-0,0.749l-0.749,0l-0,-0.749Zm0.749,-0.75l0.749,0l-0,0.75l-0.749,0l-0,-0.75Zm-0,1.499l0.749,0l-0,0.749l-0.749,-0l-0,-0.749Zm-0.749,0.749l0.749,-0l-0,0.749l-0.749,-0l-0,-0.749Zm0.749,0.749l0.749,-0l-0,0.75l-0.749,-0l-0,-0.75Zm-0.749,0.75l0.749,-0l-0,0.749l-0.749,-0l-0,-0.749Zm0.749,0.749l0.749,-0l-0,0.75l-0.749,0l-0,-0.75Zm-0.749,0.711l0.749,-0l-0,0.748l-0.749,-0l-0,-0.748Zm-0.159,1.183l1.824,0l-0,2.407l-1.824,-0l-0,-2.407Z" style="fill:#fff;fill-rule:nonzero;"/><text x="8.165px" y="26.373px" style="font-family:'baotucuheiti';font-weight:700;font-size:15.833px;fill:#fff;">ONE</text><g><text x="13.25px" y="44.152px" style="font-family:'InsaniburgerwithCheese', 'Insaniburger with Cheese';font-size:11.114px;fill:#ff6969;">PHP</text></g></svg>